<?xml version="1.0" encoding="UTF-8"?>
<svg width="429px" height="44px" viewBox="0 0 429 44" version="1.1" xmlns="http://www.w3.org/2000/svg" xmlns:xlink="http://www.w3.org/1999/xlink">
    <title>Artboard</title>
    <g id="Artboard" stroke="none" stroke-width="1" fill="none" fill-rule="evenodd">
        <g id="dashhudson-identity" transform="translate(2.000000, 2.000000)" fill-rule="nonzero">
            <path d="M14.2907801,0.418588152 C17.5531915,0.418588152 20.4893617,0.872649876 23.0992908,1.78786804 C25.7092199,2.7030862 27.929078,4.00851366 29.751773,5.70415041 C31.5815603,7.39978716 32.9858156,9.45725435 33.9716312,11.8694573 C34.9574468,14.2816602 35.4539007,16.9918411 35.4539007,19.9929053 C35.4539007,22.9939695 34.9574468,25.7041504 33.9716312,28.1163533 C32.9858156,30.5285562 31.5744681,32.5860234 29.751773,34.2816602 C27.9219858,35.9772969 25.7092199,37.2827244 23.0992908,38.1979425 C20.4893617,39.1131607 17.5531915,39.5672224 14.2907801,39.5672224 L1.42058154e-14,39.5672224 L1.42058154e-14,0.404398723 L14.2907801,0.404398723 L14.2907801,0.418588152 Z M3.41134752,3.66087265 L3.41134752,36.3320326 L14.2907801,36.3320326 C17.141844,36.3320326 19.6595745,35.9418233 21.8439716,35.1684995 C24.0283688,34.3951756 25.858156,33.3025896 27.3546099,31.8836467 C28.8439716,30.4647038 29.9716312,28.7477829 30.7375887,26.7399787 C31.5035461,24.7250798 31.8865248,22.4760553 31.8865248,20 C31.8865248,17.5168499 31.5035461,15.2749202 30.7375887,13.2600213 C29.9716312,11.2451224 28.8439716,9.52820149 27.3546099,8.10216389 C25.8652482,6.67612629 24.0283688,5.58354026 21.8439716,4.8173111 C19.6595745,4.05108194 17.1489362,3.66796736 14.2907801,3.66796736 L3.41134752,3.66796736 L3.41134752,3.66087265 Z" id="Shape" fill="#D3A50C"></path>
            <path d="M76.0283688,39.5814118 L72.3617021,39.5814118 L67.6099291,28.1376375 L47.2553191,28.1376375 L42.5035461,39.5814118 L38.9503546,39.5814118 L55.3900709,0.418588152 L59.5815603,0.418588152 L76.0283688,39.5814118 Z M48.6241135,24.895353 L66.2411348,24.895353 L57.4326241,3.74600922 L48.6241135,24.895353 Z" id="Shape" fill="#D3A50C"></path>
            <path d="M108.191489,7.07343029 C106.659574,5.9950337 104.879433,5.07981554 102.851064,4.34905995 C100.815603,3.61120965 98.5177305,3.2422845 95.9432624,3.2422845 C94.3758865,3.2422845 92.929078,3.41965236 91.5957447,3.77438808 C90.2624113,4.1291238 89.1134752,4.63994324 88.141844,5.31394111 C87.1702128,5.98793899 86.4113475,6.80383115 85.8652482,7.76161759 C85.3120567,8.71940404 85.0425532,9.81908478 85.0425532,11.0464704 C85.0425532,12.9833274 85.8014184,14.5512593 87.3191489,15.7289819 C88.8368794,16.9137992 91.2695035,17.6942178 94.6028369,18.063143 L98.8794326,18.5384888 C100.609929,18.7442355 102.212766,19.0776871 103.687943,19.5317488 C105.163121,19.9858106 106.432624,20.6172402 107.503546,21.4047535 C108.574468,22.1993615 109.411348,23.1855268 110.007092,24.3703441 C110.602837,25.5551614 110.900709,26.9599149 110.900709,28.5775098 C110.900709,30.4788932 110.496454,32.1461511 109.687943,33.5721887 C108.879433,34.9982263 107.77305,36.1901383 106.375887,37.1408301 C104.978723,38.0915218 103.347518,38.808088 101.48227,39.2834338 C99.6170213,39.7587797 97.6312057,40 95.5248227,40 C94.0496454,40 92.5957447,39.8722951 91.1631206,39.6239801 C89.7304965,39.3685704 88.3546099,39.0280241 87.035461,38.5881518 C85.7234043,38.1482795 84.4964539,37.6303654 83.3546099,37.0344094 C82.2198582,36.4384534 81.2198582,35.7928343 80.3617021,35.104647 L82.2340426,32.3944661 C82.9219858,32.9336644 83.7446809,33.465768 84.6950355,33.9907769 C85.6453901,34.5157857 86.6950355,34.9769422 87.8439716,35.3884356 C88.9929078,35.7999291 90.212766,36.1262859 91.5106383,36.3816956 C92.8085106,36.6371054 94.1347518,36.7577155 95.4964539,36.7577155 C97.1560284,36.7577155 98.7092199,36.5945371 100.148936,36.2681802 C101.595745,35.9418233 102.843972,35.452288 103.907801,34.7995743 C104.971631,34.1468606 105.808511,33.3238737 106.425532,32.3377084 C107.042553,31.3515431 107.347518,30.1951046 107.347518,28.868393 C107.347518,26.7399787 106.510638,25.1294785 104.829787,24.0297978 C103.148936,22.9301171 100.680851,22.1922668 97.4184397,21.8233416 L92.9716312,21.3196169 C91.1843972,21.1138702 89.5815603,20.7591344 88.1631206,20.2554097 C86.7446809,19.751685 85.5390071,19.0847818 84.5390071,18.2547002 C83.5390071,17.4246187 82.7801418,16.4313586 82.2624113,15.2749202 C81.7375887,14.1184817 81.4822695,12.7846754 81.4822695,11.2735012 C81.4822695,9.46434906 81.858156,7.8609436 82.6170213,6.46328485 C83.3687943,5.06562611 84.4042553,3.88790351 85.7092199,2.92302235 C87.0141844,1.9652359 88.5460993,1.23448031 90.3120567,0.737850302 C92.070922,0.241220291 93.964539,0 95.9716312,0 C97.4822695,0 98.9007092,0.113515431 100.234043,0.333451579 C101.567376,0.560482441 102.808511,0.865555161 103.964539,1.25576446 C105.120567,1.64597375 106.198582,2.10713019 107.191489,2.62504434 C108.191489,3.15005321 109.106383,3.71053565 109.943262,4.30649166 L108.191489,7.07343029 Z" id="Path" fill="#D3A50C"></path>
            <polygon id="Path" fill="#D3A50C" points="123.680851 18.2405108 148.900709 18.2405108 148.900709 0.418588152 152.312057 0.418588152 152.312057 39.5814118 148.900709 39.5814118 148.900709 21.4827953 123.680851 21.4827953 123.680851 39.5814118 120.269504 39.5814118 120.269504 0.418588152 123.680851 0.418588152 123.680851 18.2405108"></polygon>
            <polygon id="Path" fill="#2A2A2A" points="181.056738 18.8790351 208.12766 18.8790351 208.12766 0.418588152 210.22695 0.418588152 210.22695 39.5814118 208.12766 39.5814118 208.12766 20.8371763 181.056738 20.8371763 181.056738 39.5814118 178.985816 39.5814118 178.985816 0.418588152 181.056738 0.418588152"></polygon>
            <path d="M252.780142,24.4200071 C252.780142,26.9953884 252.375887,29.2444129 251.567376,31.1741752 C250.758865,33.1039376 249.652482,34.7144377 248.255319,35.9985811 C246.858156,37.2827244 245.219858,38.2547002 243.333333,38.907414 C241.446809,39.5601277 239.446809,39.8864846 237.319149,39.8864846 C235.177305,39.8864846 233.163121,39.5601277 231.276596,38.907414 C229.390071,38.2547002 227.751773,37.2827244 226.35461,35.9985811 C224.957447,34.7144377 223.851064,33.1039376 223.042553,31.1741752 C222.234043,29.2444129 221.829787,26.9953884 221.829787,24.4200071 L221.829787,0.418588152 L223.929078,0.418588152 L223.929078,24.2781128 C223.929078,26.5555161 224.276596,28.5420362 224.964539,30.2518624 C225.652482,31.9616885 226.602837,33.3735367 227.801418,34.5015963 C229.007092,35.6296559 230.41844,36.4739269 232.049645,37.0344094 C233.680851,37.5948918 235.439716,37.8715857 237.319149,37.8715857 C239.184397,37.8715857 240.929078,37.5948918 242.560284,37.0344094 C244.191489,36.4739269 245.609929,35.6296559 246.808511,34.5015963 C248.014184,33.3735367 248.957447,31.9545938 249.64539,30.2518624 C250.333333,28.5491309 250.680851,26.5555161 250.680851,24.2781128 L250.680851,0.418588152 L252.780142,0.418588152 L252.780142,24.4200071 L252.780142,24.4200071 Z" id="Path" fill="#2A2A2A"></path>
            <path d="M278.056738,0.418588152 C281.411348,0.418588152 284.425532,0.872649876 287.099291,1.77367861 C289.77305,2.68180206 292.035461,3.97304009 293.893617,5.66158212 C295.751773,7.35012416 297.170213,9.40049663 298.156028,11.8126995 C299.141844,14.2249024 299.638298,16.9563675 299.638298,19.9929053 C299.638298,23.0365378 299.141844,25.7609081 298.156028,28.173111 C297.170213,30.5853139 295.744681,32.6356864 293.893617,34.3242284 C292.035461,36.0127705 289.77305,37.3111032 287.099291,38.212132 C284.425532,39.1202554 281.411348,39.5672224 278.056738,39.5672224 L264.382979,39.5672224 L264.382979,0.404398723 L278.056738,0.404398723 L278.056738,0.418588152 Z M266.453901,2.40510819 L266.453901,37.5948918 L278.056738,37.5948918 C281.170213,37.5948918 283.93617,37.1904931 286.347518,36.3816956 C288.758865,35.5728982 290.794326,34.4022703 292.439716,32.869812 C294.092199,31.3444484 295.340426,29.4927279 296.198582,27.32884 C297.056738,25.1649521 297.48227,22.7243703 297.48227,20 C297.48227,17.2756297 297.049645,14.8279532 296.198582,12.6569706 C295.340426,10.4859879 294.085106,8.64136219 292.439716,7.11599858 C290.787234,5.59772969 288.758865,4.43419652 286.347518,3.61830436 C283.93617,2.80950692 281.170213,2.39801348 278.056738,2.39801348 L266.453901,2.39801348 L266.453901,2.40510819 Z" id="Shape" fill="#2A2A2A"></path>
            <path d="M334.822695,6.15111742 C334.099291,5.61191912 333.283688,5.09400497 332.375887,4.61156438 C331.468085,4.1291238 330.489362,3.69634622 329.425532,3.32742107 C328.361702,2.95140121 327.205674,2.6534232 325.957447,2.43348705 C324.70922,2.20645619 323.375887,2.10003547 321.957447,2.10003547 C320.262411,2.10003547 318.687943,2.29868748 317.248227,2.68889677 C315.801418,3.07910607 314.553191,3.64668322 313.489362,4.39872295 C312.425532,5.14366797 311.595745,6.05888613 311,7.13728272 C310.404255,8.21567932 310.106383,9.45015963 310.106383,10.8265342 C310.106383,11.8694573 310.29078,12.8272437 310.666667,13.6927989 C311.042553,14.558354 311.631206,15.3316779 312.439716,15.9985811 C313.248227,16.6725789 314.304965,17.2330614 315.617021,17.6942178 C316.921986,18.1482795 318.496454,18.4746364 320.340426,18.659099 L325.347518,19.1912026 C327.156028,19.3969493 328.787234,19.7304009 330.241135,20.1844626 C331.695035,20.6385243 332.929078,21.2557645 333.943262,22.0290883 C334.957447,22.8024122 335.737589,23.7531039 336.276596,24.8811635 C336.815603,26.0092231 337.085106,27.3359347 337.085106,28.868393 C337.085106,30.7343029 336.680851,32.3589926 335.879433,33.7353672 C335.078014,35.1188365 333.985816,36.2610855 332.609929,37.1763037 C331.22695,38.0915218 329.609929,38.7726144 327.758865,39.2195814 C325.907801,39.6665484 323.921986,39.8935793 321.815603,39.8935793 C320.283688,39.8935793 318.801418,39.7587797 317.368794,39.4891806 C315.93617,39.2195814 314.574468,38.8648457 313.297872,38.4249734 C312.021277,37.9851011 310.843972,37.4813764 309.758865,36.9137992 C308.673759,36.3462221 307.737589,35.7502661 306.93617,35.1401206 L308.085106,33.4870521 C308.77305,34.012061 309.609929,34.5370699 310.588652,35.0691735 C311.567376,35.601277 312.64539,36.0766229 313.815603,36.4952111 C314.992908,36.9137992 316.255319,37.2543455 317.602837,37.5168499 C318.957447,37.7793544 320.35461,37.9070592 321.808511,37.9070592 C323.638298,37.9070592 325.347518,37.7296914 326.93617,37.3749557 C328.531915,37.0202199 329.921986,36.4739269 331.106383,35.7360766 C332.29078,34.9982263 333.219858,34.0759134 333.900709,32.969138 C334.58156,31.8623625 334.921986,30.5498404 334.921986,29.0386662 C334.921986,27.8467542 334.702128,26.7967364 334.262411,25.888613 C333.822695,24.9875842 333.170213,24.2142604 332.304965,23.5828308 C331.439716,22.9514012 330.35461,22.4334871 329.049645,22.0432778 C327.744681,21.6530685 326.234043,21.3621852 324.51773,21.1777226 L319.404255,20.645619 C315.510638,20.2341256 312.624113,19.1982973 310.751773,17.5239447 C308.879433,15.8566868 307.943262,13.6573253 307.943262,10.9329549 C307.943262,9.20184463 308.304965,7.66229159 309.035461,6.32139056 C309.765957,4.98048954 310.751773,3.84533523 312.014184,2.92302235 C313.269504,2.00070947 314.751773,1.29833274 316.460993,0.822986875 C318.170213,0.347641007 320.007092,0.113515431 321.985816,0.113515431 C323.553191,0.113515431 325.007092,0.227030862 326.361702,0.461156438 C327.716312,0.695282015 328.964539,1.01454416 330.106383,1.41184817 C331.255319,1.8162469 332.304965,2.27740333 333.269504,2.80950692 C334.22695,3.3416105 335.099291,3.89499823 335.886525,4.47676481 L334.822695,6.15111742 Z" id="Path" fill="#2A2A2A"></path>
            <path d="M364.070922,0.113515431 C365.93617,0.113515431 367.723404,0.333451579 369.425532,0.773323874 C371.12766,1.21319617 372.716312,1.83753104 374.177305,2.64632849 C375.638298,3.45512593 376.971631,4.44838595 378.177305,5.62610855 C379.382979,6.80383115 380.404255,8.12344803 381.255319,9.59914863 C382.106383,11.0748492 382.758865,12.6853494 383.22695,14.4377439 C383.695035,16.1901383 383.929078,18.0489535 383.929078,20.0070947 C383.929078,22.9514012 383.41844,25.6473927 382.390071,28.0879745 C381.361702,30.5285562 379.964539,32.6285917 378.184397,34.3809862 C376.404255,36.1333806 374.304965,37.4884711 371.893617,38.4533523 C369.48227,39.4111387 366.87234,39.8935793 364.078014,39.8935793 C361.283688,39.8935793 358.673759,39.4111387 356.262411,38.4533523 C353.851064,37.4955658 351.751773,36.1333806 349.971631,34.3809862 C348.191489,32.6285917 346.787234,30.5285562 345.765957,28.0879745 C344.737589,25.6473927 344.22695,22.9514012 344.22695,20.0070947 C344.22695,18.0276694 344.460993,16.1688542 344.929078,14.4235545 C345.397163,12.6782547 346.049645,11.0748492 346.900709,9.59914863 C347.751773,8.12344803 348.77305,6.80383115 349.978723,5.62610855 C351.184397,4.44838595 352.510638,3.45512593 353.978723,2.64632849 C355.439716,1.83753104 357.028369,1.21319617 358.730496,0.773323874 C360.425532,0.333451579 362.205674,0.113515431 364.070922,0.113515431 Z M364.070922,2.10003547 C361.609929,2.10003547 359.304965,2.53281305 357.148936,3.38417879 C354.992908,4.23554452 353.120567,5.4558354 351.531915,7.01667258 C349.93617,8.58460447 348.680851,10.4647038 347.77305,12.6640653 C346.865248,14.8634267 346.404255,17.3040085 346.404255,19.9929053 C346.404255,22.6818021 346.858156,25.1223838 347.77305,27.3217453 C348.687943,29.5211068 349.943262,31.4083008 351.531915,32.969138 C353.12766,34.5370699 355,35.7502661 357.148936,36.6016318 C359.304965,37.4600922 361.609929,37.8857751 364.070922,37.8857751 C365.70922,37.8857751 367.283688,37.6871231 368.794326,37.2969138 C370.304965,36.9067045 371.716312,36.3462221 373.028369,35.6154665 C374.340426,34.8918056 375.531915,33.9978716 376.595745,32.9478538 C377.659574,31.8907414 378.574468,30.7059241 379.333333,29.3792125 C380.092199,28.0525009 380.687943,26.6051791 381.106383,25.0301525 C381.524823,23.4551259 381.737589,21.7736786 381.737589,19.9787159 C381.737589,18.1908478 381.531915,16.5094005 381.106383,14.9272792 C380.687943,13.3522526 380.092199,11.9049308 379.333333,10.5782192 C378.574468,9.25150763 377.652482,8.06669032 376.595745,7.00957786 C375.531915,5.95956013 374.347518,5.06562611 373.028369,4.34196524 C371.716312,3.61120965 370.304965,3.05782192 368.794326,2.66051791 C367.29078,2.29159276 365.70922,2.10003547 364.070922,2.10003547 Z" id="Shape" fill="#2A2A2A"></path>
            <polygon id="Path" fill="#2A2A2A" points="425 39.5814118 423.12766 39.5814118 395.751773 4.0297978 395.723404 39.5814118 393.652482 39.5814118 393.652482 0.418588152 395.524823 0.418588152 422.900709 35.9702022 422.900709 0.418588152 425 0.418588152 425 39.5814118"></polygon>
        </g>
    </g>
</svg>